<?xml version="1.0" encoding="utf-8"?>
<!-- Generator: Adobe Illustrator 13.0.0, SVG Export Plug-In . SVG Version: 6.00 Build 14948)  -->
<!DOCTYPE svg PUBLIC "-//W3C//DTD SVG 1.1//EN" "http://www.w3.org/Graphics/SVG/1.1/DTD/svg11.dtd">
<svg version="1.1" id="Layer_2" xmlns="http://www.w3.org/2000/svg" xmlns:xlink="http://www.w3.org/1999/xlink" x="0px" y="0px"
	 width="412.762px" height="412.762px" viewBox="0 0 412.762 412.762" enable-background="new 0 0 412.762 412.761"
	 xml:space="preserve">
<g>
	<path d="M56.495,160.087c-0.13,0.533-0.305,1.58-0.581,3.046l-0.427-0.104c-0.294-0.314-0.625-0.477-1.052-0.581l-1.748-0.429
		c1.979,3.351,2.491,6.463,1.642,9.928c-0.886,3.617-3.67,6.244-7,6.719c-2.263,0.333-4.923-0.239-8.225-1.048l-7.225-1.771
		c-4.467-1.096-6.118-1.419-6.631,0.675l-0.028,0.114l-0.894-0.219c0.546-1.723,0.939-3.16,1.2-4.226
		c0.271-1.104,0.578-2.522,0.891-4.302l0.894,0.219l-0.019,0.076c-0.466,1.904,1.498,2.627,6.509,3.855
		c1.515,0.372,3.311,0.771,5.408,1.286c3.769,0.924,6.523,1.438,8.505,0.915c2.195-0.552,4.027-2.483,4.662-5.072
		c0.598-2.437,0.05-5.073-1.592-7.615l-15.691-3.686c-3.467-0.809-4.759-1.247-5.513,0.99l-0.894-0.219
		c0.5-1.533,0.865-2.856,1.117-3.883c0.289-1.181,0.615-2.675,0.927-4.455l0.894,0.219c-0.349,2.094,0.894,2.236,3.641,2.951
		l17.065,4.466l0.621,0.152c2.214,0.543,3.134,0.486,3.647-1.608l0.028-0.114l0.894,0.219
		C57.058,158.126,56.7,159.25,56.495,160.087z"/>
</g>
<g>
	<path d="M49.356,123.874l9.693,4.386c1.533,0.687,2.648,1.229,3.377,1.556c1.643,0.736,3.74,1.633,6.253,2.672l-0.48,1.073
		c-7.207,2.098-16.098,5.116-26.922,9.028l12.336,5.527c3.577,1.603,5.283,2.195,6.581-0.015l0.804,0.36
		c-0.816,1.525-1.418,2.673-1.787,3.495c-0.289,0.645-0.696,1.75-1.227,3.23l-0.804-0.36c0.674-2.19-0.784-3.143-3.979-4.618
		l-10.082-4.689c-2.722-1.262-4.438-2.031-5.094-2.325l-4.307-1.93l0.401-0.895c6.144-1.585,15.067-4.675,27.152-9.054
		l-12.546-5.449c-3.885-1.698-5.567-2.15-6.875,0.184l-0.803-0.359c0.75-1.382,1.299-2.511,1.684-3.369
		c0.401-0.895,0.894-2.091,1.441-3.607l0.803,0.36C44.223,121.444,45.744,122.254,49.356,123.874z"/>
</g>
<g>
	<path d="M55.265,108.723l15.16,9.847l1.084,0.681c1.862,1.17,2.813,1.536,3.862,0.019l0.778,0.489
		c-1.116,1.475-1.934,2.627-2.476,3.49c-0.354,0.564-0.954,1.669-1.777,3.281l-0.778-0.489c0.828-1.47,0.352-2.14-1.409-3.246
		l-0.372-0.234l-15.527-9.567c-2.459-1.498-3.428-2.061-4.519-0.477l-0.778-0.489c1.04-1.43,1.858-2.582,2.4-3.445
		c0.604-0.963,1.267-2.167,2.062-3.658l0.778,0.489C53.088,106.847,53.625,107.647,55.265,108.723z"/>
</g>
<g>
	<path d="M80.743,78.37c4.397,9.631,8.016,17.156,10.802,22.577l-0.764,0.894c-3.136-1.131-6.672-2.348-10.667-3.645
		c1.657,3.786,3.233,7.298,4.836,10.471l-0.764,0.894c-14.547-4.95-23.008-7.483-25.169-8.092c-1.848-0.547-2.853-0.787-3.834,0.179
		l-0.7-0.597c1.161-1.174,2.087-2.136,2.749-2.911c0.535-0.626,1.37-1.666,2.424-3.085l0.67,0.571
		c-0.418,0.674-0.455,1.21-0.121,1.496c1.125,0.961,8.153,3.2,20.921,7.403c-0.95-2.152-2.032-4.519-3.245-7.101
		c-9.926-3.219-14.507-5.43-15.754-3.969c-0.076,0.089-0.127,0.149-0.172,0.264l-0.7-0.597c1.136-1.145,2.011-2.046,2.698-2.851
		c0.585-0.686,1.391-1.751,2.444-3.17l0.669,0.571c-0.535,0.935-0.667,1.336-0.029,1.882c0.578,0.494,3.562,1.496,8.879,3.459
		l-2.786-5.729c-0.616-1.248-1.315-2.154-1.71-2.491c-0.669-0.572-1.339-0.526-1.904,0.074l-0.7-0.597
		c0.957-0.936,1.649-1.685,2.107-2.221c0.458-0.537,1.115-1.368,1.889-2.458l0.7,0.597l-0.025,0.03
		c-1.4,1.639,1.069,5.398,4.561,13.38c3.019,1.083,6.145,2.104,9.469,3.138c-5.476-11.017-8.316-17.36-9.836-18.659
		c-0.852-0.728-1.694-0.726-2.469,0.057l-0.639-0.545c0.953-0.992,1.721-1.83,2.307-2.515c0.56-0.656,1.319-1.606,2.246-2.876
		l0.791,0.675C78.894,74.316,79.59,75.84,80.743,78.37z"/>
</g>
<g>
	<path d="M113.665,80.54l-0.332,0.275c-0.608-0.119-1.479,0.551-3.047,1.853l-0.724,0.601l-10.025,8.421l-0.587-0.708l0.09-0.075
		c1.357-1.126,1.102-2.11-0.302-3.802l-0.205-0.246L87.299,73.625c-2.227-2.623-2.995-3.855-4.865-2.303l-0.613-0.739l10.921-9.061
		c1.297-1.076,2.112-1.752,2.172-2.477l0.332-0.275c0.48,0.64,1.012,1.342,1.65,2.112c0.281,0.339,0.822,0.929,1.542,1.735
		l-0.845,0.701c-1.706-1.442-3.117-0.687-5.802,1.541l-3.56,2.953l6.544,8.133l4.012-3.329c2.263-1.877,3.105-2.888,1.893-4.533
		l0.785-0.651c0.936,1.251,1.616,2.193,2.127,2.809c0.409,0.493,1.077,1.237,1.924,2.197l-0.754,0.625
		c-1.565-1.457-2.612-0.692-4.814,1.135l-3.952,3.279L103,86.165l4.314-3.579c2.564-2.128,3.507-3.324,2.692-6.026l0.968-0.491
		C111.745,77.612,112.632,79.11,113.665,80.54z"/>
</g>
<g>
	<path d="M133.414,67.521c-0.404,0.24-1.363,0.854-2.853,1.876l-0.245-0.412c0.033-0.252,0.052-0.45-0.029-0.588
		c-0.306-0.516-1.179-0.835-2.525-1.339l-7.281-2.751c-1.218-0.441-2.416-0.847-3.673-1.125l-0.236,0.14l4.295,7.403l0.225,0.379
		c0.897,1.514,1.439,1.89,2.998,1.06l0.469,0.791c-1.646,0.836-2.847,1.501-3.689,2.001c-0.708,0.419-1.801,1.113-3.177,2.021
		l-0.449-0.757c1.511-0.988,1.346-1.728,0.306-3.482l-9.799-16.228c-1.42-2.32-1.93-3.18-3.934-2.179l-0.469-0.792
		c1.052-0.53,1.828-0.99,2.333-1.29c1.349-0.799,2.946-2.025,5.037-3.264c5.632-3.337,10.034-2.599,12.501,1.564
		c1.896,3.2,1.097,6.696-2.407,9.934l10.792,3.832c2.253,0.803,3.728,1.138,5.029,0.414l0.469,0.791
		C135.66,66.237,134.459,66.902,133.414,67.521z M111.149,50.172c-1.619,0.959-1.313,1.244-0.063,3.431l4.908,8.667
		c0.661-0.346,1.119-0.571,1.355-0.711c3.507-2.079,4.24-5.302,2.079-8.949C117.411,49.204,114.286,48.314,111.149,50.172z"/>
</g>
<g>
	<path d="M146.535,62.284c-1.997,0.812-4.123,1.202-6.561,1.244c-0.512-1.26-1.148-2.512-1.843-3.697l1.139-0.636
		c1.968,2.135,4.142,2.589,6.865,1.481c3.195-1.299,4.409-4.038,3.31-6.743c-1.416-3.481-4.596-2.664-9.632-2.559
		c-3.604,0.084-6.069-1.503-7.44-4.875c-1.914-4.705-0.08-9.25,5.476-11.51c2.433-0.99,4.564-0.95,6.223-1.451l0.196,0.481
		c0.452,1.111,1.013,2.178,1.589,3.282l-1.131,0.547c-1.661-2.001-3.819-2.419-6.652-1.267c-3.05,1.241-4.409,4.039-3.219,6.964
		c1.341,3.298,3.842,3.101,7.84,2.942c4.582-0.18,7.335,0.557,8.993,4.632C153.585,55.791,151.655,60.202,146.535,62.284z"/>
</g>
<g>
	<path d="M167.381,34.345c-1.346,4.319-2.215,6.737-1.871,8.054l2.166,8.78l0.051,0.193c0.424,1.626,1.029,2.088,2.757,1.721
		l0.231,0.891c-1.859,0.319-3.246,0.598-4.156,0.835c-0.986,0.257-2.283,0.719-3.922,1.271l-0.232-0.891
		c1.631-0.425,1.935-1.125,1.511-2.751l-0.05-0.193l-2.19-7.78c-0.412-1.423-0.816-1.731-1.356-2.252l-8.488-8.166
		c-1.304-1.272-2.181-1.994-3.511-1.813l-0.202-0.775c1.613-0.337,2.989-0.655,4.203-0.972c0.948-0.247,2.379-0.661,4.208-1.261
		l0.202,0.773c-0.87,0.393-1.169,0.8-0.987,1.498c0.171,0.658,0.972,1.401,2.085,2.558l6.08,6.23l2.443-9.278
		c0.288-1.068,0.352-1.911,0.19-2.531c-0.161-0.619-0.766-0.916-1.677-0.679l-0.182-0.696c1.311-0.26,2.383-0.498,3.18-0.706
		c0.948-0.247,2.039-0.573,3.346-0.995l0.212,0.813C169.506,26.803,168.936,29.433,167.381,34.345z"/>
</g>
<g>
	<path d="M198.157,24.687c0.1,0.915,0.193,1.79,0.328,2.661l-1.166,0.166c-0.404-2.29-1.891-2.894-5.047-2.551l-3.586,0.389
		l2.049,21.066l0.061,0.558c0.215,1.988,0.557,2.596,2.912,2.501l0.096,0.875c-1.967,0.052-3.49,0.177-4.621,0.3
		c-1.013,0.11-2.563,0.359-4.65,0.746l-0.099-0.915c2.204-0.4,2.485-1.075,2.257-3.182l-0.043-0.398l-2.521-21.056l-4.053,0.439
		c-2.884,0.313-4.157,1.295-4.114,3.505l-1.053,0.114c-0.107-0.995-0.181-2.034-0.301-3.147c-0.021-0.199-0.143-0.95-0.285-2.262
		l0.506-0.055c1.186,0.394,2.75,0.264,4.775,0.044l12.705-1.378c2.455-0.266,4.131-0.448,5.119-1.158l0.506-0.055
		C197.989,23.136,198.092,24.09,198.157,24.687z"/>
</g>
<g>
	<path d="M221.61,50.896l-0.432-0.018c-0.371-0.496-1.467-0.582-3.502-0.667l-0.941-0.04l-13.084-0.467l0.037-0.919l0.119,0.005
		c1.762,0.074,2.23-0.828,2.322-3.025l0.014-0.319l0.531-17.35c0.104-3.438,0.359-4.868-2.068-4.97l0.041-0.959l14.178,0.593
		c1.684,0.07,2.74,0.114,3.271-0.384l0.432,0.018c-0.072,0.798-0.148,1.675-0.191,2.674c-0.018,0.439-0.012,1.24-0.018,2.32
		l-1.098-0.046c-0.299-2.214-1.854-2.599-5.34-2.745l-4.619-0.193l-0.594,10.422l5.209,0.218c2.936,0.123,4.24-0.063,4.441-2.096
		l1.02,0.042c-0.145,1.556-0.27,2.71-0.305,3.51c-0.025,0.639-0.029,1.64-0.043,2.92l-0.98-0.041
		c-0.186-2.129-1.473-2.264-4.332-2.383l-5.131-0.214l-0.623,11.142l5.602,0.234c3.328,0.139,4.83-0.118,6.035-2.669l1.049,0.284
		C222.147,47.437,221.799,49.143,221.61,50.896z"/>
</g>
<g>
	<path d="M252.42,30.401c-0.176,0.903-0.346,1.767-0.475,2.638l-1.162-0.187c0.291-2.306-0.949-3.322-4.066-3.93l-3.539-0.69
		l-4.281,20.72l-0.107,0.549c-0.383,1.963-0.234,2.644,2.043,3.25l-0.168,0.864c-1.893-0.532-3.387-0.864-4.502-1.081
		c-1.002-0.195-2.555-0.417-4.664-0.665l0.178-0.903c2.223,0.271,2.691-0.29,3.098-2.37l0.076-0.393l3.826-20.849l-4-0.78
		c-2.848-0.555-4.355,0.006-4.969,2.127l-1.039-0.203c0.191-0.981,0.428-1.995,0.643-3.094c0.037-0.196,0.145-0.949,0.398-2.245
		l0.5,0.098c1.016,0.728,2.547,1.067,4.549,1.457l12.543,2.446c2.424,0.473,4.078,0.795,5.232,0.409l0.498,0.098
		C252.719,28.87,252.536,29.812,252.42,30.401z"/>
</g>
<g>
	<path d="M273.797,65.898c-7.596-3.649-10.457-11.456-6.752-19.171c3.707-7.714,11.572-10.415,19.416-6.647
		c7.561,3.633,10.332,11.442,6.592,19.229C289.502,66.7,281.5,69.599,273.797,65.898z M285.538,41.279
		c-5.018-2.41-10.207,0.155-13.672,7.365c-3.635,7.57-2.182,13.505,2.871,15.932c4.701,2.257,10.207-0.333,13.703-7.615
		C292.026,49.498,290.661,43.74,285.538,41.279z"/>
</g>
<g>
	<path d="M303.917,69.706c-0.961-0.681-1.805-1.523-2.588-2.519l-4.857,6.656l-0.254,0.359c-0.994,1.404-1.139,2.084,0.352,3.237
		l-0.531,0.751c-1.34-1.095-2.414-1.953-3.246-2.542c-0.703-0.498-1.805-1.18-3.314-2.102l0.531-0.75
		c1.621,0.902,2.154,0.349,3.311-1.283l10.533-15.083c1.771-2.569,2.537-3.448,0.641-4.839l0.531-0.751
		c1.041,0.836,1.873,1.424,2.385,1.787c1.729,1.223,3.738,2.253,5.656,3.612c5.023,3.556,6.02,7.985,3.084,12.13
		C313.331,72.351,308.524,72.966,303.917,69.706z M311.846,56.943c-1.92-1.359-2.279-1.123-3.48,0.574l-0.879,1.24l-4.154,5.733
		l-0.139,0.196c-0.832,1.175-1.275,1.938,1.029,3.569c2.752,1.948,5.807,1.024,8.348-2.566
		C315.043,62.196,314.821,59.049,311.846,56.943z"/>
</g>
<g>
	<path d="M316.723,96.325c-5.951-5.968-6.051-14.283,0.01-20.325c6.063-6.042,14.377-5.972,20.52,0.191
		c5.924,5.941,5.939,14.227-0.178,20.326C331.268,102.305,322.756,102.377,316.723,96.325z M335.985,77.013
		c-3.932-3.942-9.678-3.25-15.344,2.397c-5.947,5.929-6.549,12.01-2.592,15.979c3.682,3.692,9.734,3.081,15.457-2.623
		C339.368,86.922,339.997,81.038,335.985,77.013z"/>
</g>
<g>
	<path d="M340.11,125.4l-0.248-0.354c0.125-0.518-0.447-1.409-1.57-3.015l-8.953-12.824l0.754-0.527
		c1.166,1.671,2.078,1.37,3.947,0.065l0.525-0.367l14.545-10.395c2.338-1.681,3.201-2.332,2.057-3.971l0.721-0.504
		c0.877,1.396,1.631,2.543,2.281,3.476c0.605,0.867,1.492,2.066,2.689,3.572l-0.754,0.526c-1.086-1.345-2.031-1.162-3.924,0.111
		l-17.625,11.923c0.734,1.258,1.531,2.47,2.383,3.691c2.783,3.986,4.504,5.892,7.736,5.211l0.377,1.028
		C343.274,123.716,341.62,124.489,340.11,125.4z"/>
</g>
<g>
	<path d="M344.854,134.64c-0.979-1.92-1.549-4.006-1.799-6.43c1.211-0.618,2.404-1.36,3.525-2.152l0.73,1.079
		c-1.959,2.145-2.225,4.35-0.889,6.968c1.568,3.072,4.4,4.047,7.002,2.72c3.348-1.709,2.262-4.807,1.725-9.814
		c-0.393-3.585,0.979-6.177,4.221-7.831c4.523-2.309,9.209-0.872,11.936,4.47c1.193,2.34,1.336,4.467,1.979,6.075l-0.463,0.236
		c-1.068,0.546-2.084,1.195-3.135,1.864l-0.643-1.082c1.854-1.824,2.084-4.011,0.693-6.734c-1.496-2.934-4.4-4.048-7.215-2.612
		c-3.17,1.618-2.76,4.093-2.26,8.063c0.57,4.55,0.072,7.357-3.846,9.357C351.928,141.108,347.368,139.563,344.854,134.64z"/>
</g>
<g>
	<path d="M357.846,165.408c-0.271-0.818-0.754-2.022-1.471-3.684l0.568-0.188c0.264,0.285,0.502,0.372,0.883,0.246
		c0.645-0.213,1.156-1.085,2.014-2.318l6.783-10.049c-0.564-0.307-1.117-0.579-1.594-0.875l-8.201,2.588l-0.303,0.1
		c-1.596,0.528-2.219,1.064-1.764,2.566l-0.912,0.301c-0.377-1.651-0.707-2.904-1.016-3.834c-0.258-0.781-0.729-1.948-1.396-3.461
		l0.91-0.301c0.518,1.563,1.287,1.598,3.223,0.957l0.533-0.176l16.848-5.738c3.1-1.067,4.275-1.333,3.662-3.318l0.873-0.289
		c0.416,1.638,0.758,2.928,1.066,3.859c0.357,1.079,0.875,2.394,1.52,3.957l-0.873,0.289c-0.807-1.673-1.617-1.448-3.719-0.794
		l-8.883,2.815c8.949,4.389,13.689,6.743,14.6,6.442c0.455-0.151,0.688-0.723,0.48-1.479l0.721-0.239
		c0.391,1.687,0.734,2.853,0.943,3.487c0.357,1.079,0.84,2.281,1.445,3.733l-0.785,0.301c-1.234-3.351-6.422-4.896-14.275-9.027
		l-7.621,11.853c-1.777,2.777-2.727,4.619-2.297,6.169l-0.836,0.276C358.545,167.778,358.155,166.339,357.846,165.408z"/>
</g>
<g>
	<path d="M383.708,175.17l-17.814,3.084l-1.258,0.237c-2.162,0.408-3.107,0.786-2.844,2.612l-0.904,0.17
		c-0.186-1.841-0.367-3.243-0.557-4.245c-0.125-0.654-0.436-1.872-0.928-3.614l0.904-0.17c0.393,1.641,1.197,1.808,3.24,1.422
		l0.432-0.082l17.891-3.537c2.822-0.572,3.916-0.819,3.639-2.722l0.904-0.171c0.209,1.757,0.393,3.159,0.582,4.16
		c0.209,1.117,0.543,2.45,0.975,4.083l-0.904,0.171C386.577,175.067,385.639,174.845,383.708,175.17z"/>
</g>
<g>
	<path d="M26.208,230.288c-0.043-0.547-0.207-1.596-0.403-3.076l0.438-0.033c0.377,0.205,0.742,0.256,1.181,0.221l1.794-0.143
		c-2.93-2.559-4.395-5.354-4.676-8.91c-0.293-3.711,1.527-7.08,4.538-8.576c2.045-1.027,4.75-1.32,8.139-1.588l7.416-0.586
		c4.585-0.363,6.254-0.574,6.084-2.723l-0.009-0.117l0.917-0.072c0.022,1.807,0.1,3.295,0.186,4.391
		c0.09,1.133,0.244,2.574,0.506,4.363l-0.917,0.072l-0.006-0.078c-0.154-1.955-2.246-2.025-7.389-1.617
		c-1.555,0.121-3.386,0.307-5.539,0.477c-3.867,0.305-6.646,0.682-8.362,1.801c-1.911,1.213-3.044,3.623-2.834,6.279
		c0.198,2.502,1.546,4.832,3.902,6.73l16.055-1.426c3.545-0.32,4.91-0.309,4.924-2.67l0.917-0.072
		c0.006,1.611,0.075,2.982,0.159,4.037c0.096,1.211,0.255,2.732,0.518,4.52l-0.917,0.072c-0.327-2.096-1.551-1.844-4.384-1.658
		l-17.604,1.117l-0.638,0.049c-2.272,0.18-3.128,0.523-2.958,2.674l0.009,0.115l-0.917,0.072
		C26.288,232.325,26.276,231.147,26.208,230.288z"/>
</g>
<g>
	<path d="M54.031,259.562l-10.274,2.76c-1.621,0.441-2.827,0.73-3.599,0.941c-1.736,0.473-3.926,1.109-6.529,1.902l-0.309-1.135
		c4.239-6.195,9.195-14.168,15.08-24.061l-13.042,3.555c-3.782,1.031-5.477,1.654-5.077,4.186l-0.849,0.232
		c-0.338-1.695-0.601-2.965-0.838-3.834c-0.186-0.68-0.572-1.795-1.1-3.275l0.849-0.232c0.868,2.121,2.599,1.934,6.005,1.045
		l10.768-2.771c2.904-0.752,4.718-1.246,5.412-1.436l4.553-1.24l0.258,0.943c-3.744,5.125-8.68,13.174-15.241,24.227l13.154-3.748
		c4.08-1.152,5.667-1.869,5.197-4.506l0.849-0.23c0.296,1.545,0.588,2.766,0.835,3.674c0.258,0.945,0.637,2.184,1.175,3.701
		l-0.849,0.232C59.541,258.183,57.851,258.521,54.031,259.562z"/>
</g>
<g>
	<path d="M62.199,271.265l-16.697,6.934l-1.174,0.508c-2.019,0.875-2.857,1.453-2.199,3.174l-0.844,0.367
		c-0.585-1.754-1.073-3.082-1.479-4.018c-0.265-0.611-0.836-1.73-1.7-3.32l0.844-0.367c0.744,1.516,1.566,1.502,3.474,0.674
		l0.403-0.174l16.673-7.393c2.626-1.18,3.639-1.66,2.949-3.455l0.844-0.365c0.591,1.666,1.078,2.994,1.483,3.928
		c0.452,1.043,1.071,2.271,1.851,3.77l-0.844,0.365C64.976,270.534,64.013,270.522,62.199,271.265z"/>
</g>
<g>
	<path d="M80.385,297.552c-1.172-1.949-10.661,0.283-30.03,3.01l-0.626-1.041c9.256-12.244,14.725-19.375,16.176-21.621
		c0.836-1.326,1.306-2.02,0.593-3.283l0.789-0.475c0.847,1.641,1.52,2.836,2.004,3.643c0.606,1.008,1.429,2.299,2.481,3.816
		l-0.754,0.453c-0.655-0.934-1.062-1.146-1.851-0.672c-0.994,0.598-5.413,6.137-13.317,16.518c11.78-1.916,18.565-2.979,20.382-4.07
		c0.891-0.537,1.014-1.342,0.402-2.438l0.774-0.42c0.726,1.439,1.317,2.5,1.742,3.207c0.505,0.838,1.206,1.928,2.117,3.209
		l-0.754,0.453C80.506,297.753,80.445,297.653,80.385,297.552z"/>
</g>
<g>
	<path d="M72.788,330.388l-0.278-0.33c0.115-0.609-0.562-1.475-1.875-3.033l-0.607-0.719l-8.5-9.959l0.703-0.594l0.076,0.09
		c1.137,1.348,2.118,1.084,3.8-0.332l0.245-0.207l13.146-11.336c2.604-2.246,3.831-3.025,2.265-4.883l0.734-0.619l9.146,10.852
		c1.086,1.289,1.768,2.098,2.494,2.152l0.278,0.33c-0.637,0.484-1.335,1.021-2.1,1.666c-0.336,0.283-0.922,0.828-1.723,1.555
		l-0.708-0.84c1.429-1.717,0.663-3.121-1.586-5.789l-2.98-3.537l-8.083,6.607l3.36,3.986c1.895,2.248,2.912,3.082,4.547,1.857
		l0.657,0.779c-1.243,0.945-2.18,1.633-2.792,2.148c-0.489,0.414-1.229,1.088-2.182,1.941l-0.632-0.75
		c1.444-1.574,0.671-2.615-1.173-4.805l-3.309-3.926l-8.633,7.072l3.613,4.285c2.147,2.547,3.352,3.48,6.047,2.646l0.499,0.963
		C75.7,328.444,74.209,329.343,72.788,330.388z"/>
</g>
<g>
	<path d="M93.392,348.671c-0.354-0.309-1.239-1.025-2.678-2.117l0.315-0.361c0.25-0.049,0.443-0.092,0.548-0.213
		c0.394-0.453,0.421-1.383,0.477-2.818l0.321-7.777c0.035-1.295,0.043-2.559-0.089-3.84l-0.207-0.18l-5.676,6.406l-0.289,0.332
		c-1.155,1.328-1.341,1.961-0.062,3.18l-0.604,0.693c-1.312-1.301-2.321-2.23-3.06-2.873c-0.621-0.541-1.624-1.359-2.918-2.379
		l0.577-0.664c1.413,1.123,2.062,0.734,3.4-0.805l12.322-14.408c1.754-2.078,2.41-2.832,0.83-4.418l0.604-0.695
		c0.834,0.832,1.515,1.424,1.958,1.809c1.184,1.029,2.85,2.16,4.684,3.756c4.939,4.295,5.623,8.705,2.448,12.357
		c-2.441,2.807-6.01,3.148-10.186,0.842l-0.242,11.449c-0.054,2.391,0.093,3.896,1.189,4.904l-0.604,0.693
		C95.318,350.399,94.309,349.468,93.392,348.671z M102.854,322.079c-1.42-1.234-1.593-0.855-3.277,1.02l-6.682,7.385
		c0.535,0.52,0.894,0.885,1.101,1.064c3.077,2.676,6.366,2.355,9.148-0.844C105.743,327.718,105.605,324.472,102.854,322.079z"/>
</g>
<g>
	<path d="M106.37,358.608c-1.808-1.174-3.343-2.695-4.771-4.672c0.741-1.141,1.403-2.379,1.98-3.625l1.171,0.568
		c-0.625,2.838,0.245,4.881,2.71,6.48c2.894,1.879,5.834,1.309,7.424-1.141c2.047-3.152-0.442-5.293-3.407-9.363
		c-2.131-2.91-2.239-5.84-0.257-8.893c2.766-4.26,7.542-5.355,12.573-2.09c2.203,1.432,3.39,3.203,4.75,4.275l-0.283,0.436
		c-0.653,1.008-1.208,2.078-1.784,3.182l-1.096-0.617c0.693-2.506-0.199-4.516-2.763-6.18c-2.762-1.793-5.835-1.309-7.555,1.342
		c-1.938,2.984-0.346,4.924,2.07,8.113c2.767,3.656,3.739,6.338,1.343,10.027C115.729,360.679,111.005,361.618,106.37,358.608z"/>
</g>
<g>
	<path d="M137.102,348.517l-8.39,16.016l-0.576,1.141c-0.991,1.965-1.267,2.945,0.343,3.848l-0.415,0.82
		c-1.574-0.973-2.797-1.68-3.708-2.139c-0.595-0.301-1.751-0.795-3.432-1.465l0.415-0.82c1.541,0.688,2.163,0.15,3.1-1.705
		l0.198-0.393l8.076-16.354c1.262-2.588,1.732-3.605,0.053-4.541l0.415-0.822c1.522,0.902,2.746,1.609,3.655,2.068
		c1.015,0.512,2.275,1.059,3.834,1.711l-0.415,0.822C138.766,346.175,138.02,346.784,137.102,348.517z"/>
</g>
<g>
	<path d="M165.317,357.901c-0.305,0.867-0.596,1.697-0.852,2.541l-1.123-0.354c0.621-2.24-0.459-3.424-3.454-4.477l-3.402-1.195
		l-7.234,19.883l-0.186,0.529c-0.663,1.887-0.616,2.58,1.551,3.512l-0.292,0.83c-1.796-0.801-3.226-1.346-4.298-1.723
		c-0.962-0.338-2.467-0.781-4.518-1.332l0.305-0.867c2.161,0.59,2.707,0.102,3.409-1.898l0.133-0.377l6.803-20.076l-3.847-1.352
		c-2.736-0.961-4.31-0.623-5.224,1.387l-0.998-0.35c0.332-0.943,0.712-1.912,1.083-2.969c0.066-0.189,0.282-0.918,0.719-2.164
		l0.48,0.17c0.9,0.867,2.367,1.424,4.29,2.1l12.057,4.234c2.33,0.818,3.921,1.377,5.119,1.162l0.48,0.168
		C165.834,356.429,165.516,357.335,165.317,357.901z"/>
</g>
<g>
	<path d="M180.608,386.128c-0.963-0.182-2.364-0.367-4.205-0.553l0.156-0.824c1.225,0.068,1.746-0.158,1.91-1.023
		c0.037-0.195,0.066-0.557-0.037-1.064l-0.815-4.754l-9.859-1.869l-1.333,2.189c-0.631,1.021-0.949,1.855-1.083,2.563
		c-0.201,1.063,0.164,1.66,1.282,2.076l-0.156,0.824c-1.402-0.387-2.582-0.693-3.506-0.867c-0.578-0.111-1.664-0.275-3.234-0.41
		l0.149-0.785c2.102,0.072,3.129-1.564,4.905-4.402l8.493-13.451c2.674-4.215,3.884-6.389,3.922-6.381l0.887,0.168l4.252,24.09
		c0.455,2.65,0.611,4.145,2.46,4.699l-0.149,0.785C182.858,386.677,181.534,386.304,180.608,386.128z M175.266,363.583
		c-0.344,0.545-1.35,2.064-2.818,4.555l-3.686,6.18l8.551,1.621L175.266,363.583z"/>
</g>
<g>
	<path d="M197.489,388.345c-2.154-0.094-4.25-0.625-6.484-1.604c0.06-1.359,0.002-2.762-0.133-4.129l1.298-0.104
		c0.9,2.762,2.688,4.08,5.624,4.207c3.447,0.15,5.691-1.834,5.818-4.752c0.162-3.756-3.068-4.336-7.689-6.338
		c-3.313-1.424-4.893-3.895-4.734-7.531c0.221-5.074,3.78-8.441,9.771-8.182c2.625,0.113,4.545,1.037,6.262,1.271l-0.021,0.52
		c-0.053,1.199,0.014,2.404,0.076,3.646l-1.256,0.025c-0.676-2.51-2.465-3.789-5.52-3.922c-3.291-0.143-5.689,1.834-5.827,4.99
		c-0.154,3.557,2.2,4.42,5.901,5.941c4.24,1.746,6.438,3.563,6.246,7.957C206.602,385.378,203.01,388.583,197.489,388.345z"/>
</g>
<g>
	<path d="M244.11,384.681c-8.246,1.748-15.275-2.689-17.051-11.063c-1.773-8.373,2.807-15.313,11.32-17.115
		c8.205-1.74,15.168,2.754,16.959,11.205C257.038,375.728,252.469,382.909,244.11,384.681z M238.379,358.015
		c-5.447,1.154-7.99,6.354-6.332,14.178c1.74,8.217,6.516,12.029,12,10.867c5.1-1.08,7.879-6.492,6.205-14.396
		C248.536,360.563,243.94,356.837,238.379,358.015z"/>
</g>
<g>
	<path d="M269.497,364.454c-1.094,0.432-2.262,0.678-3.523,0.789l2.914,7.707l0.162,0.408c0.631,1.602,1.121,2.094,2.9,1.479
		l0.338,0.855c-1.648,0.521-2.953,0.951-3.9,1.324c-0.803,0.316-1.977,0.867-3.574,1.625l-0.338-0.855
		c1.641-0.863,1.471-1.611,0.738-3.471l-6.863-17.07c-1.182-2.887-1.498-4.01-3.701-3.184l-0.338-0.855
		c1.27-0.414,2.217-0.789,2.801-1.02c1.969-0.777,3.93-1.895,6.117-2.758c5.727-2.258,9.977-0.67,11.842,4.055
		C276.862,358.022,274.749,362.382,269.497,364.454z M263.153,350.835c-2.188,0.863-2.188,1.293-1.424,3.227l0.559,1.414
		l2.525,6.613l0.088,0.225c0.527,1.338,0.924,2.127,3.551,1.092c3.135-1.238,4.033-4.301,2.418-8.393
		C269.299,351.032,266.543,349.497,263.153,350.835z"/>
</g>
<g>
	<path d="M301.68,361.745c-7.184,4.41-15.295,2.586-19.773-4.709c-4.477-7.293-2.488-15.365,4.928-19.918
		c7.148-4.391,15.215-2.49,19.734,4.871C310.86,348.976,308.961,357.274,301.68,361.745z M287.342,338.542
		c-4.744,2.912-5.398,8.664-1.213,15.48c4.393,7.158,10.17,9.148,14.947,6.217c4.443-2.729,5.248-8.76,1.02-15.645
		C297.766,337.54,292.186,335.567,287.342,338.542z"/>
</g>
<g>
	<path d="M334.385,336.292l-0.322,0.285c-0.529-0.066-1.35,0.605-2.82,1.9l-11.73,10.346l-0.607-0.691
		c1.527-1.348,1.125-2.219-0.383-3.928l-0.424-0.48l-11.971-13.277c-1.934-2.135-2.678-2.918-4.176-1.596l-0.582-0.66
		c1.287-1.029,2.342-1.908,3.195-2.658c0.793-0.701,1.885-1.717,3.244-3.076l0.609,0.689c-1.215,1.23-0.926,2.15,0.553,3.885
		l13.836,16.166c1.168-0.869,2.283-1.799,3.4-2.783c3.645-3.215,5.346-5.141,4.305-8.275l0.979-0.49
		C332.354,333.339,333.311,334.896,334.385,336.292z"/>
</g>
<g>
	<path d="M325.823,309.983l13.311,12.232l0.957,0.852c1.641,1.463,2.518,1.982,3.803,0.66l0.688,0.613
		c-1.346,1.268-2.344,2.268-3.023,3.029c-0.443,0.498-1.219,1.486-2.299,2.939l-0.686-0.611c1.061-1.313,0.703-2.051-0.85-3.436
		l-0.328-0.293l-13.717-12.02c-2.176-1.887-3.037-2.602-4.375-1.221l-0.688-0.613c1.264-1.236,2.262-2.236,2.939-2.998
		c0.758-0.848,1.611-1.926,2.643-3.264l0.688,0.611C323.991,307.771,324.387,308.649,325.823,309.983z"/>
</g>
<g>
	<path d="M360.747,303.44l-0.248,0.355c-0.617,0.047-1.277,0.924-2.443,2.596l-0.537,0.771l-7.422,10.787l-0.756-0.527l0.068-0.096
		c1.008-1.447,0.5-2.326-1.305-3.584l-0.262-0.184l-14.352-9.766c-2.842-1.936-3.912-2.92-5.301-0.926l-0.789-0.549l8.115-11.641
		c0.965-1.383,1.57-2.252,1.436-2.967l0.246-0.354c0.635,0.49,1.334,1.025,2.154,1.598c0.359,0.25,1.039,0.676,1.947,1.262
		l-0.627,0.9c-2.029-0.936-3.188,0.166-5.184,3.027l-2.645,3.795l8.473,6.1l2.98-4.277c1.682-2.412,2.225-3.611,0.617-4.873
		l0.584-0.836c1.234,0.957,2.141,1.684,2.797,2.141c0.525,0.367,1.367,0.906,2.441,1.605l-0.561,0.805
		c-1.896-0.988-2.703,0.027-4.34,2.375l-2.936,4.213l9.063,6.51l3.207-4.598c1.904-2.734,2.496-4.139,0.99-6.525l0.803-0.73
		C358.118,301.13,359.372,302.339,360.747,303.44z"/>
</g>
<g>
	<path d="M356.583,265.241l9.596,4.596c1.518,0.719,2.621,1.285,3.344,1.629c1.625,0.771,3.701,1.713,6.191,2.807l-0.504,1.063
		c-7.25,1.941-16.203,4.766-27.109,8.443l12.213,5.793c3.541,1.68,5.234,2.311,6.578,0.127l0.795,0.377
		c-0.848,1.508-1.475,2.643-1.859,3.457c-0.303,0.637-0.734,1.734-1.299,3.203l-0.795-0.377c0.723-2.176-0.715-3.16-3.877-4.703
		l-9.979-4.906c-2.693-1.322-4.393-2.129-5.043-2.438l-4.262-2.021l0.42-0.885c6.178-1.453,15.164-4.348,27.342-8.463l-12.426-5.721
		c-3.846-1.781-5.518-2.271-6.877,0.035l-0.795-0.377c0.779-1.367,1.354-2.482,1.756-3.332c0.422-0.887,0.939-2.072,1.52-3.576
		l0.795,0.377C351.502,262.7,353.006,263.544,356.583,265.241z"/>
</g>
<g>
	<path d="M381.014,257.997c-0.6,2.072-1.613,3.982-3.092,5.92c-1.307-0.377-2.684-0.654-4.045-0.844l0.207-1.289
		c2.896-0.221,4.6-1.645,5.418-4.469c0.961-3.313-0.438-5.963-3.242-6.775c-3.611-1.049-4.939,1.955-7.979,5.973
		c-2.17,2.881-4.943,3.83-8.441,2.816c-4.879-1.414-7.311-5.67-5.643-11.43c0.732-2.523,2.084-4.172,2.719-5.783l0.5,0.145
		c1.152,0.334,2.338,0.555,3.563,0.787l-0.273,1.227c-2.602,0.064-4.266,1.5-5.117,4.436c-0.916,3.164,0.438,5.963,3.475,6.844
		c3.42,0.99,4.814-1.094,7.168-4.33c2.699-3.707,4.984-5.412,9.211-4.186C380.284,248.44,382.553,252.69,381.014,257.997z"/>
</g>
<g>
	<path d="M362.549,230.772l17.779,3.311l1.262,0.215c2.17,0.371,3.189,0.346,3.578-1.457l0.906,0.154
		c-0.467,1.789-0.783,3.168-0.955,4.172c-0.111,0.656-0.244,1.906-0.389,3.711l-0.906-0.154c0.203-1.676-0.492-2.111-2.543-2.461
		l-0.436-0.074l-18.01-2.912c-2.846-0.445-3.957-0.596-4.357,1.285l-0.908-0.156c0.414-1.719,0.73-3.096,0.902-4.102
		c0.191-1.119,0.342-2.486,0.508-4.168l0.908,0.156C359.823,229.87,360.624,230.405,362.549,230.772z"/>
</g>
<g>
	<path d="M388.147,217.567c-0.119,2.152-0.678,4.242-1.682,6.463c-1.357-0.076-2.764-0.037-4.131,0.084l-0.088-1.301
		c2.771-0.865,4.111-2.637,4.275-5.572c0.193-3.443-1.764-5.713-4.678-5.875c-3.754-0.209-4.375,3.016-6.434,7.611
		c-1.465,3.295-3.955,4.844-7.59,4.641c-5.07-0.283-8.395-3.885-8.061-9.873c0.146-2.621,1.096-4.531,1.35-6.244l0.52,0.029
		c1.199,0.066,2.402,0.016,3.646-0.033l0.012,1.258c-2.52,0.645-3.822,2.416-3.992,5.469c-0.184,3.289,1.766,5.713,4.92,5.889
		c3.553,0.199,4.445-2.146,6.012-5.828c1.799-4.219,3.643-6.393,8.035-6.146C385.293,208.417,388.456,212.05,388.147,217.567z"/>
</g>
<g>
	<polygon points="198.723,133.165 200.235,131.149 200.252,130.937 199.428,132.156 	"/>
</g>
<g>
	<polygon points="202.655,186.386 202.639,186.386 202.151,189.109 	"/>
</g>
<g>
	<path d="M295.793,164.009c10.381-19.958-32.658-24.796-25.703,0.304h-33.266l-0.201-42.84c19.656,11.088,27.82-34.071,1.715-24.495
		c-1.211-15.322-16.129-17.238-26.41-8.165l-16.229-4.234h-1.714l-2.419,0.706l-0.704,0.302l-2.42,4.132l-2.42-1.613l-3.023-0.807
		l-0.706,0.807l-1.311,1.613v2.521l-5.847-1.209h-2.924c-1.914,0-5.442,2.217-6.35,5.242l0.303,3.426l5.04,4.133l0.706-1.713
		l2.115-2.722l2.823-0.805h2.318l17.237,9.171h-1.108l-13.004-3.426l-2.017,0.503l-5.846,4.134l-1.008,0.503l-9.778-2.42
		l-2.117,2.623l0.403,3.225l1.109,1.008l3.528,2.42l0.503,0.301h4.84l2.52-0.706l6.955-7.659l2.822-0.908l3.83-0.304l4.839,1.211
		l-1.008,0.503l-5.443,0.202l-1.009,0.503l-1.41,2.721v1.211l0.201,0.706l2.924,1.813h1.311l2.116-1.008l2.318-0.201l1.714,0.201
		l1.108,1.413l2.318,4.435c1.108,4.435,1.411,8.97-0.302,13.606l-2.017,3.429l3.024-1.512c-0.706,4.233-2.318,8.769-7.157,11.793
		v1.814l-4.233-0.403l-3.125-2.116c-9.475-5.846-18.043,9.978-27.115,12.096l-3.428-0.706l-1.713-2.418l-0.706-1.714l0.303-3.025
		l7.358-9.073c5.141-6.954,7.661-14.111,4.737-21.47c-5.141-19.05-43.444-10.683-43.444,15.523v2.924l0.302,6.25v1.914l-1.31,5.949
		l-1.411,1.713l-3.024,0.706l1.714,0.807v0.907l1.714,0.301l4.435-0.301l0.302,26.611l-0.706,10.685
		c-1.714,11.39-4.032,22.679-12.096,34.271l1.412-1.309l2.52-0.504c8.871-5.545,13.81-15.223,16.733-22.176l-1.916,10.078
		l2.721-5.543l2.117-4.535c-3.226,12.396-4.536,27.719-19.656,39.008l2.419-0.301l3.73-1.713l2.016-1.412
		c4.838-3.73,10.081-8.164,13.507-13.406l10.685-21.371l-1.713,12.299l3.427-7.863c-2.318,12.801-4.738,25.807-11.39,38.908
		c15.221-15.521,21.772-30.543,26.309-46.065l1.311-2.922l0.402-1.008l-2.419,17.64l5.847-14.919c0,10.079-2.016,21.37-2.822,29.333
		c8.668-11.693,13.508-22.781,16.027-34.574l0.705,6.653v8.667l3.326-14.817l1.211,4.738l0.504,5.847l2.016-3.023l0.705,10.986
		l2.017-1.713l-0.303,4.635l-2.116,3.025l-2.318,1.41l-4.839,3.43l-6.149,10.381c-2.117,5.848,0,11.391-2.419,17.439h1.009
		l3.125-4.133v-1.213l-0.706-0.703l-0.303-2.117l-0.504-2.924l2.521-6.047l1.008,2.621l0.705-3.328l0.403-4.836l1.311-1.412
		l1.008-1.211l1.714,5.344l2.117-7.561l1.713,9.676l0.605-11.389l2.419-3.428l-0.706,5.545h1.21l2.218-3.932l-0.303-3.73
		l-0.303-2.318l-1.41-5.242l1.41-7.963l-2.419,2.52l-0.704,1.715l-0.304-1.715c-1.411-4.636,2.017-8.667,0.304-12.901l-0.707,4.536
		l-1.311,1.008l-1.209-1.814l-0.504,3.225v-2.116l-1.412-2.018l-0.303-1.713l-1.41-4.939l0.705-2.924h0.705l2.219-2.821l0.402-1.108
		l0.807,5.543l1.311,1.311l0.403,0.807l2.318,1.613l-0.302-2.016l1.713-5.848l1.411-5.14l-3.326,6.148l-1.511-3.024l-0.707,1.311
		l-1.008-1.109l-1.814-4.838v4.133l-2.621,2.218l-2.621,0.302l0.908-0.302c3.427-4.838,4.133-9.778,8.87-14.918l1.714,11.995v-2.318
		l1.41-2.822l5.242-9.677l-1.814,1.512l-3.428,5.443l1.109-1.915l-1.109-3.528l-1.713,2.721v1.512v-1.512v-4.435l-5.645,4.435
		l-1.008-0.302l3.225-3.226l0.303-2.621l0.707-2.218l-1.01-1.209l-1.41,5.846l-2.017-6.551l-0.403,1.41l-1.311,7.158l-2.117-2.017
		l-2.016-8.063v4.938l-1.713,4.435l-1.412-2.015l-0.604-2.116l-1.411-4.838v4.535l-1.714,5.848l-1.108-1.413l-0.907-1.813
		l-1.108-3.024l-0.605-2.822v2.822l-1.814,5.544l-0.705,1.411l-1.311-2.118l-0.807-1.31l-1.714-4.233v2.52v1.713l-2.822,3.932
		l-0.201-1.915l-2.117-4.435l-2.117,7.157l-0.908-1.311l-1.411-5.846l-1.814,4.737l-1.008,1.109l-0.706-6.25h-1.007l-3.528,2.822
		l-0.706,0.202l1.815-6.753l-2.419,0.908l-2.016,0.705l-1.512,0.706l3.528-6.048l-5.141,1.916l0.403-1.413l5.141-5.543l-6.653,1.109
		l1.815-2.017l2.419-1.411l3.125-1.411l-5.847,0.302l-0.706,0.403l1.411-2.117l0.504-0.202l2.217-1.208l2.419-1.312l-5.141,0.302
		l2.318-2.42l4.133-0.503l-1.311-1.31l-3.931,0.503l-0.706-0.503l3.225-2.217l2.016-2.42l-2.318,0.706l-2.52,0.503l-0.403-1.006
		l2.923-2.723l1.714-2.417l-5.847,3.224h-1.512l0.504-1.813l1.311-3.831c-3.528,2.923-5.242,6.653-5.947,8.266l-0.605-5.343
		l-1.411,8.568l-1.512-1.411l-0.907-1.514l-1.311-1.914l1.311,12.296l-2.419-3.426c-0.403,3.426,0,6.351-1.815,9.375v-2.017
		l-1.209-3.932l-0.403,5.949l-1.814,2.117l-1.714,0.301l2.419-3.729v-3.225v-3.124v-7.864c3.024-12.801,4.032-15.925,12.802-20.461
		c8.668-4.536,18.043-6.351,25.603,7.055l0.202,2.018c0.403,5.441-1.31,10.987-6.754,16.529l-6.249,8.569v5.243l0.302,1.006
		l2.722,3.429l2.52,0.706h3.831h1.31l4.133-1.715l2.52-1.714l2.924-3.022l7.357-5.142l2.016-0.403h3.227l5.242,2.621l6.652,0.504
		l2.017-1.714l3.124-6.955l-2.318,3.023h-1.109l1.412-1.208v-1.109l5.543-13.206v-2.015l1.211,9.374l2.521-3.224l1.713-5.141
		l-1.713,1.411l-1.715-0.706l-1.814-4.435l-0.203,1.713l-1.695,2.509l-0.018,0.213l-1.512,2.015l0.705-1.009l0.824-1.219
		l0.688-8.356l-1.209-5.242l-1.008-2.116l5.242,7.358l1.41-1.107l-1.41-4.84l-2.018-1.411c-3.931-2.317-7.357-3.426-11.086-1.813
		l-2.42,0.503l-2.42-1.411v-1.31l1.109-1.211l0.906-0.301c4.839,0,9.476,1.813,14.818,4.435l-0.908-2.923l-4.938-5.947
		l-19.151-9.576l-4.94,0.604l-2.62,3.83l-0.303,1.007l-0.807-1.411l-0.402-1.31l0.806-2.721l1.411-1.512l0.706-0.706l6.854-0.707
		l6.451,2.118l-2.016-2.621l1.008-1.814l0.705-0.403l4.436,2.52c4.133,4.132,8.366,6.653,13.004,7.862l-1.916-2.519l1.01-1.211
		c0.906-0.705,0.301-1.813-0.305-2.217l1.008-0.503l8.568,5.745l0.303,5.545v5.947v2.923v1.813v2.116l-0.303,14.112l-1.41,1.512
		l-0.303-1.107v-2.319l-2.117-3.932l1.715,9.073h-0.303l1.008,4.133l1.41-3.225l-2.619,7.66l-0.807-1.713l-0.707,3.024l-1.008-7.459
		l-0.402,13.305l5.846-11.29v2.42l-0.303,13.809l-1.006-1.41l1.006,14.213l-1.006-2.218l1.006,17.035l-1.006,2.419l1.006-0.403
		v1.715l-1.006-0.807l-0.707-1.613l-0.906-1.311v4.436l-1.211-2.722l-1.713-4.133l1.109,7.158l1.311,0.705l0.705,1.008l0.303,1.715
		l1.713,3.526l-1.008,4.839l0.404-4.133l-1.412,1.613l-2.418-1.613v2.117l-2.521-1.715l-0.303-1.108l0.303-2.821v-1.613l0.402-9.677
		l-0.922,5.14h0.016l-0.504,2.723l0.488-2.723h-1.699l-0.705,2.723l0.705,3.931l1.008,1.714l3.025,6.149l-0.303-1.008h0.705
		l0.305,2.016l0.703,2.017l2.018,2.922l0.705-1.209v-2.015l1.41-3.428v5.946v5.848l-1.41-0.404l-1.209-3.023l-0.504,2.721
		l-1.311-2.52l-0.707-1.41l-1.008-1.715v1.715l-0.807-3.729l-0.705,2.015l0.303,1.715l2.521,4.938l1.006,1.512l2.42,1.918
		l-0.303,1.813l1.311,1.41l0.402,0.908l-0.402,2.521v-2.219l-1.713,1.008l-2.018-1.715l-0.703-1.209l-0.707-2.822l-1.008-1.107
		v9.273l-1.814-1.916l-1.211,1.916l-3.225-7.156l-2.017-2.42l-1.108-0.807l1.814,4.535l0.402,1.713l-1.108,4.637l-1.108,0.908
		l-0.303,6.957l1.009,0.807l2.217-2.521l0.202-9.678l3.225,4.033l1.715,2.219l0.504,6.449l-1.613-1.713l2.016,10.381l0.807,11.795
		v2.018l-2.822-22.982l-1.814-4.941l-1.008-1.713l0.705,6.654l-1.915-1.514l0.504,3.225l0.706,6.855l1.512-3.125l1.713,13.406
		l-1.41-0.402c1.41,3.932,1.41,7.359-0.303,11.09v-4.436l-1.109-2.117l-1.41,8.566l-1.613-17.539l-0.403,14.113v-3.43l-2.116,5.545
		l-0.706-5.545l-1.008,7.359v-6.248l-1.311-2.117l-0.403,2.418l-0.705,2.42l-0.303,1.309l-2.722,0.404l-2.722,0.809l0.303,1.914
		l-0.706,0.303h-0.706l-0.906-0.504l-2.822,0.906l2.52,1.41l-3.932,2.119l-2.318,0.705h-3.225l0.705,1.311l-1.411,0.705h-2.017
		h-3.326l-1.109,2.721l2.723-1.309v1.107l2.52-0.605l0.605,0.807l-4.032,1.412l-1.513,1.008l-1.713,0.303l-1.008,0.504l-2.722-1.814
		l1.714-1.412l3.024,0.506v-1.814h-1.311l1.713-1.412l3.024-2.016l2.218-0.705h0.605l2.317-1.414l2.823-0.705
		c1.108-0.604-0.605-1.41-1.311-1.107l-1.814,0.504l1.814-2.42l1.915-0.504l2.218-0.203l3.125-0.299l-1.109-2.521l2.016-2.219
		l1.412-0.906l2.419-1.713l0.202,0.705l-2.42,4.838l1.209,0.604l6.956-11.691v-2.621l-2.218,2.219v1.814l-1.311,2.115l0.303-4.234
		l-1.814-4.836l-0.705,9.273l-0.605-0.203v-2.822l-1.008,3.529l-0.303-4.637l-2.117,7.359l-0.504-0.406v-6.953l-1.512,2.52
		l0.403-4.738l-2.116,4.033l-0.707-5.545c0.404,4.838-1.813,9.375-3.426,14.818l2.721-1.008l2.117-2.016l1.814-3.428l-1.109,3.93
		l-3.124,2.219l-11.794,8.869l-4.737,2.822l-1.714,0.404h-1.008l-0.504-1.008l-0.302-2.924l-1.311-0.504v-1.109l6.149-10.383
		l1.411-2.115l0.706-0.201l4.133-0.707l1.411-1.711l2.117-0.404l2.016-3.027l-0.302-4.23l-2.822-1.715l-3.529,0.201h-2.016
		l1.513-2.922l-0.403-0.807l-2.823-1.613l-1.008,0.201l-1.713,2.521l0.201,0.705l-1.613-1.512l-3.427-2.621l-3.125,0.404
		l-1.613,1.006c-2.923,2.723-1.209,5.947-0.504,8.57l2.419,3.023l0.302,1.814c-0.302,5.846-5.14,11.492-7.257,17.641l-10.987-14.818
		l-1.008-4.234l1.008-2.318l-1.311-1.514v-4.734l-3.226-2.521h-2.318l-1.814,0.807h-0.707l-3.023,4.232l-1.412-1.512h-2.016
		l-1.713,2.018l0.302,1.107v1.01l1.411,0.805l-1.713,0.504l-2.218,0.502l-1.915,0.908l-1.008,3.73l1.008,2.924l2.721,1.715h2.117
		l3.023,1.311l0.706-0.809h2.52l1.612,1.816l2.117,0.402l4.435,5.443l-1.311,2.217v4.738l0.302,2.723l1.008-0.305l1.109,1.715
		l0.605,3.227l-0.303,3.426l-1.411,5.443v1.713l1.411,1.01v1.512c-2.218,4.738-10.382,16.127-5.846,20.664
		c7.862-1.01,9.072-9.072,12.499-15.926l0.908-2.119l3.729-6.551l2.521,1.209l0.706-0.504l1.31-1.311l2.117,1.311l5.443,6.15
		l1.512,2.217c2.822,3.324,4.838,6.855,8.568,8.668l0.906-0.102l0.706-0.906l0.807,1.313l1.411-0.406l0.906-1.611l-1.914-1.512
		l0.604-2.723l-0.604-1.008l-12.096-16.027l4.132-1.914l3.528-2.521l2.924-1.613l2.217-1.41c4.436-1.611,8.568-5.543,13.205-7.559
		l2.218-1.713l1.612-0.406l1.814-1.41l-2.217,6.25l1.512-0.303l6.955-9.375l-1.109,5.947l-1.41,2.016l2.52-0.807
		c5.143-4.635,6.553-8.869,7.057-13.305v2.217c0,7.662-0.504,18.045-11.29,22.176h-5.847l-1.008,1.816l0.705,4.838l3.428,2.318
		c2.016,0.705,4.133,0,6.149-1.008l2.419-2.418c-5.141,9.07-14.012,12.096-21.37,8.365l-2.319,2.723l-0.302,0.4l1.009,4.436
		l0.402,0.707l5.443,3.729l7.057-1.611l2.217-1.512l5.141-3.73c-5.543,6.148-12.7,7.156-16.43,14.818
		c0,2.721,0.604,5.645,1.713,8.264l1.412,1.816l2.016,1.912l2.722,0.508l2.017,0.199l2.116-2.619l2.318-7.662
		c2.116-2.016,5.141-3.426,5.847-5.242l3.225-4.436c-1.41,4.234-1.008,7.662,0,12.098c0.707,2.721,4.436,6.955,7.563,7.861
		l2.82-0.199c8.973,12.195,27.619,3.828,24.998-11.594c25.906,6.451,21.572-34.676-0.906-25.1l0.102-98.985l34.271-0.101
		c0,28.224,31.449,18.546,26.209-0.505C318.272,188.908,316.557,162.598,295.793,164.009z M178.866,108.771l-4.436,4.435
		l-1.513,0.706l-2.923,0.807l-2.218-0.604l-3.729-2.622l0.303-1.813l6.854,2.116l2.218-0.303l4.031-3.224l1.412-0.908l2.116-0.807
		L178.866,108.771z M126.045,176.308l0.706-0.504l-0.706-6.653v-2.722l-0.706-7.358l1.412,2.922v1.614l0.302,1.814V155.34
		l2.117,4.436l0.706,1.513l3.125-15.322l-1.008,7.963l1.008-3.025l1.713-3.527l1.311-1.411l1.713-0.202
		c-3.729,5.343-4.435,9.778-5.442,14.818l3.225-6.956h1.21l-2.722,11.088l2.722-4.437l-0.303,4.739l-0.907,3.831l0.907-2.218
		l2.52-1.613l-1.512,7.56l2.823-4.939v7.66l2.016-4.435l0.403,6.149l2.418-5.14l1.714,1.006l0.303,5.848l1.008-2.923l1.713-1.814
		v6.25l1.411-5.242l1.412,0.302l0.604,2.722l-0.302,3.931l1.814-5.846l1.008,2.621l0.403,4.939l0.907-8.367l1.109,1.009l0.302,7.357
		l1.714-6.854l0.604-1.512l0.504,6.855l1.311-6.048l1.714,6.048l1.008-4.435l1.713-2.42l1.412,4.94l0.705-2.52l-0.402-3.729
		l2.217,1.814l0.908,4.737l0.705-6.955l1.41,1.007l1.109,5.646l1.008-6.653l2.723,1.713l0.302,1.009l0.403,3.527l1.008-1.109v-0.706
		l1.109-5.443l1.612,4.435l0.706-4.638l1.008,1.21l2.117-0.302l-4.839,8.668l-3.125,3.024l2.923,1.613l-6.955,23.99l-3.225,5.443
		c1.512-6.148,2.52-13.103,3.225-19.556l-0.402-1.713l-3.73,18.244l0.202,1.715l-1.613,2.822l0.403-9.678l0.303-3.225l-1.814-19.252
		l-0.706-3.226c-6.25,16.33-8.568,32.558-19.252,49.089c3.729-10.08,6.552-19.959,8.568-30.743l-6.552,19.655l-5.443,13.104
		c3.428-14.816,6.149-29.634,6.855-44.855c-4.436,12.096-10.786,25.4-17.943,38l-2.016,1.412
		c6.956-13.104,10.282-25.603,11.391-38.303l-5.645,19.555l-6.398,14.766l-0.053,0.252l-2.721,6.15l2.774-6.402l4.383-20.913
		l1.411-22.379c-2.116,9.98-6.35,19.959-11.995,30.341c2.318-7.46,3.024-15.524,4.435-23.486l-0.403-1.01
		c-1.713,8.972-3.125,17.943-7.56,27.417l-1.613,2.924l0.907-3.73C125.139,200.5,125.34,188.806,126.045,176.308z M177.454,255.335
		l0.705-2.318h1.412L177.454,255.335z M156.185,275.192v3.428l-0.706,2.42h-1.814l-1.713-0.707l-0.706-2.822l0.303-2.117h-1.21
		l-1.814-0.201l1.814-1.814h0.907l-2.016-1.41l0.303-1.311l3.125-1.211h1.814l1.007,2.219L156.185,275.192z M167.777,245.356h1.009
		l2.419,0.402l1.411,1.309l-0.404,3.125l-1.007-0.201v0.908l-1.21-0.402l-0.403,0.705l-1.814-0.303l-1.209-1.615L167.777,245.356z
		 M165.055,239.812l-1.008,2.115l-0.706-0.604L165.055,239.812z M164.752,244.347v5.645h-0.705l-1.411-1.41L164.752,244.347z
		 M162.636,244.347l1.008,0.707l-1.311,2.42l-1.008,0.805l-0.504-0.506L162.636,244.347z M160.621,242.634l0.705,0.705l-0.705,3.729
		h-1.412h-1.814L160.621,242.634z M151.246,242.634l2.016-4.234l1.512-0.201l1.613,1.41l1.512,0.506l-1.209,1.813v2.119
		l-5.141,0.805L151.246,242.634z M152.254,248.581l0.706-2.117l2.117,1.01v0.805l0.705,0.504l2.419-1.309v1.309l1.007,0.502
		l1.009-0.502l0.403,1.41l1.31-0.201l1.109,0.908l0.302,0.705h2.823l1.612,0.404l-0.706,1.713h-3.023l-2.52,0.705l-3.024-1.711
		h-3.427l-0.605-2.523L152.254,248.581z M154.068,256.444v-1.814h4.133l-3.729-0.908l2.217-0.705l4.133,1.41l0.504,1.715
		l-2.094-0.748l0.683,1.756l-5.442,11.09h-2.218l-3.729,1.713l-1.714,1.311L154.068,256.444z M126.349,242.634l0.403-1.008
		l2.117-1.008h0.302l1.311,2.016l1.512,1.412l0.303,1.311l-1.512,2.416l-0.907-0.299l-1.714-1.01l-1.109,0.604l0.403-2.014
		l-1.412,0.705v-2.219l-0.706-1.613L126.349,242.634z M124.635,248.581l-1.311-2.117l1.109-0.705l0.706,1.008l3.024,2.721
		l1.008,0.504l-3.125,0.506l-0.907-0.506l-2.923-1.41H124.635z M120.501,248.581h1.412l3.427,3.73l-2.016,0.705l-1.109,1.41
		l-0.302-1.711l-2.521-2.725L120.501,248.581z M116.47,257.45v-0.604h-1.714v-1.107h-1.109v-4.135l2.419-0.705l1.714,0.303
		l2.217,0.402v1.412l0.504-0.301l-0.302,1.914v1.512l-2.016-0.402L116.47,257.45z M120.501,258.862l-0.302-1.713l1.411-0.705h2.823
		l0.202-2.521l2.117,1.211v-2.822l2.117,1.41l0.302-2.52l1.311,0.402l0.806-1.613l0.706-1.41l1.714-0.303l-1.109,2.621l-0.302,3.527
		l-1.512,0.203l-4.032,3.932L120.501,258.862z M126.751,260.374l3.729-5.039l2.822-0.908l-3.024,3.023l-0.705,1.412L126.751,260.374
		z M129.876,260.88l-0.303-0.506l2.419-3.225l2.016-0.705l13.507,17.641l-1.511,1.814l-1.613,1.611v-0.402l-2.822-1.916l0.302-2.52
		l2.822-0.303l-2.822-2.418v-2.119l-1.613-1.41l-5.947-0.402L129.876,260.88z M137.738,277.813l1.512-0.303h1.916l4.637,1.109
		l-2.823,1.209l-2.318,1.41c0,1.816-2.923,1.01-4.637,1.514l-0.504-0.504v-1.209h1.21l1.713-2.119L137.738,277.813z
		 M133.707,274.386h-1.109l-0.302-4.234l2.418-1.209l3.024-1.109l2.218-0.604l-0.706,2.217h-0.807l3.428,0.705l-1.008,1.816h-1.613
		l0.706,1.41l-1.512,1.008l-2.923,1.514l0.907-1.814l0.705-0.707h-2.116l-0.706,0.303L133.707,274.386z M133.001,311.38
		l-1.714-0.504l-3.125-2.016l8.568-17.439l6.652-0.705L133.001,311.38z M141.166,287.187l1.109,0.305l-1.109,2.115h-1.613
		l-2.117,0.303v-0.303l-1.915,0.303v-1.008l-0.807-2.621l1.714-2.52l4.738-0.404l-0.303,1.613h1.412l2.419,1.311L141.166,287.187z
		 M146.407,284.769l-1.311,0.906l-1.411-1.209v-2.217l1.008-0.303l1.109,0.807l0.604,0.604V284.769z M168.18,299.989l1.008,1.814
		l0.403,0.506l-2.521,3.225l-2.016,0.201l-19.051-24.191l2.117-0.305l-0.302-1.613l-1.008-1.006l1.714-2.217l1.008,1.107
		l0.806,2.115C157.395,284.769,161.931,293.034,168.18,299.989z M196.102,94.156h-2.117l-0.402-0.203l-0.303-0.706l1.311-2.217
		l2.217,0.806l0.202,0.705L196.102,94.156z M209.51,94.861l-2.824-1.614l-10.281-3.931l-2.822,0.706l-0.706,0.706l-1.008,2.52
		l-1.311-1.411V89.72l1.814-2.419c6.048-0.706,11.995,2.419,18.144,4.537l0.303,2.319L209.51,94.861z M210.819,280.333v4.637
		l-1.309,0.504l0.301,5.242l1.008,1.209l0.404,4.838l-1.412,0.705l-0.705-0.906l-0.303-2.115l-1.41-3.73l-1.713-6.25l0.703-4.133
		v-5.947l1.514,2.42l0.906,2.115L210.819,280.333z M210.516,237.19v1.008v6.652l-1.41,20.666h1.008l0.402,0.906v2.52l-0.402,5.645
		l-1.713-1.914l-1.008-2.721v-11.391l1.008-2.822l1.41-10.383l-1.008-5.748l1.008-0.504L210.516,237.19z M208.098,224.085
		l1.713,6.453l-0.705,5.543l-0.303-2.822l-0.705-2.318l-0.705-0.402v3.225l-2.018-5.744v-5.344l-0.402-3.227L208.098,224.085z
		 M203.965,233.966l0.402-2.723l-0.402-1.713l1.008,1.713L203.965,233.966z M194.993,286.28l-5.141,0.506l-1.814-1.313l-0.906-2.418
		h4.031l3.83-0.807h1.412l-2.42,2.217l-4.535-0.402v0.906l3.125,0.504l2.722-1.41l0.806-0.707l2.621-4.031l3.428-3.426v1.209
		L194.993,286.28z M194.288,298.882l-1.008,1.41l-8.568,3.73l-2.117-0.303h-1.209l-3.527-1.715l-1.009-1.512v-0.504v-3.227h2.318
		c3.831,2.119,7.46,2.119,11.391,0l3.024-2.619c5.846-4.234,7.357-9.678,8.568-14.818c0.504,4.436-1.613,10.281-5.142,15.826
		L194.288,298.882z M196.405,309.97l-2.822,3.426l-5.947,4.838l0.402,5.443v1.514l-2.016,1.209l-2.016-0.908l-1.916-2.822
		c-1.108-3.426-0.402-6.854,1.916-10.383l5.141-4.838c9.979-6.25,12.098-15.523,13.508-23.385l0.906-0.707l1.412-15.117
		l0.402-28.631v-5.846l1.715,2.318l1.008,6.553l-0.201,3.428l-1.514,9.678l-0.703,17.234
		C202.856,285.474,206.083,297.468,196.405,309.97z M209.51,324.081l-2.42-2.824l-1.715-1.713l-1.008-2.217l0.303-2.217
		l-0.303-17.236l0.303-4.234c0.705,2.418,2.016,4.939,4.436,7.357l2.117,0.201v6.957l-1.109-1.01h-2.418l1.41,9.377l1.713,0.805
		l0.807,7.156L209.51,324.081z M291.571,184.673c11.203,26.716-23.152,26.257-15.449,3.389l-43.336,0.014v108.158
		c22.5-12.75,26.375,26.104,0,13.979c5.738,21.053-19.012,26.305-19.012,5.303l-0.125-223.125
		c15.365-9.926,21.637-0.448,19.137,11.302c24.875-15,22.125,23.729,0,12.354v52.049l44.758-0.025
		c-16.395-19.636,24.48-26.556,13.1,1.456C316.274,162.764,310.399,193.389,291.571,184.673z"/>
</g>
<g>
	<polygon points="192.575,308.556 190.155,309.263 185.417,314.403 184.208,319.243 184.711,320.249 186.022,318.938
		186.425,317.327 192.575,311.38 194.288,309.263 198.723,301.198 195.699,304.728 	"/>
</g>
<g>
	<polygon points="189.45,299.284 187.131,299.284 178.866,299.587 180.579,301.198 182.292,302.005 187.333,301.804
		194.288,297.067 195.699,295.151 193.985,295.353 	"/>
</g>
<g>
	<polygon points="158.503,255.134 159.231,255.394 159.208,255.335 	"/>
</g>
<g>
	<polygon points="207.09,250.497 205.68,243.038 206.083,250.192 	"/>
</g>
<g>
	<polygon points="165.055,239.812 163.342,241.323 164.047,241.927 	"/>
</g>
<g>
	<polygon points="131.287,224.085 131.34,223.833 128.566,230.235 	"/>
</g>
<g>
	<polygon points="198.723,209.067 198.017,210.276 197.715,211.284 196.405,208.765 194.993,207.151 199.428,215.417
		201.545,218.944 202.856,219.147 202.655,216.427 201.948,215.417 200.94,202.717 200.538,212.997 	"/>
</g>
<g>
	<polygon points="195.699,198.484 192.373,193.242 194.288,200.197 196.807,202.92 198.723,206.144 199.731,205.339 199.428,201.91
		200.94,193.544 199.731,193.242 199.731,194.25 198.723,196.972 198.723,198.484 198.723,200.197 198.723,198.484 197.009,197.475
		195.699,196.972 	"/>
</g>
<g>
	<polygon points="198.42,189.512 199.428,189.814 198.723,187.396 198.017,184.976 196.102,178.021 198.017,189.109 	"/>
</g>
<g>
	<polygon points="201.948,165.421 202.151,172.879 203.965,174.593 205.68,178.727 207.393,180.541 208.098,179.13 207.897,177.013
		207.897,174.593 207.897,166.631 206.686,173.586 207.09,171.066 204.368,169.453 203.965,172.578 203.965,173.989
		202.856,168.444 203.159,165.926 	"/>
</g>
<g>
	<polygon points="207.897,154.333 207.393,156.046 205.68,155.34 204.67,157.76 203.561,152.922 203.965,158.769 204.67,159.474
		205.375,162.901 206.083,164.313 207.09,162.901 208.098,160.785 207.393,159.071 208.803,152.115 	"/>
</g>
<g>
	<polygon points="196.807,161.993 199.125,158.769 200.538,157.76 202.856,152.62 200.616,155.52 200.538,156.046 199.428,157.056
		200.616,155.52 200.94,153.325 198.42,154.333 197.009,157.76 196.807,156.853 197.513,151.107 195.296,152.922 193.985,153.627
		187.333,160.785 191.869,159.776 195.699,153.93 195.699,163.607 	"/>
</g>
<g>
	<polygon points="200.538,156.046 200.616,155.52 199.428,157.056 	"/>
</g>
<g>
	<polygon points="200.538,145.059 198.42,149.494 199.428,149.897 203.965,142.538 202.655,141.532 200.94,143.95 200.94,138.407
		"/>
</g>
<g>
	<path d="M190.155,96.674l-0.303,3.024l3.73,2.823c2.822,1.31,6.148,4.032,8.365,7.157l1.211,1.813l0.807,1.917l0.705,3.628
		l1.412,3.73l1.814,1.512l0.906,0.301l-0.402-3.426l-0.504-1.512l-2.924-2.923l3.83,1.208l-4.838-6.248l3.428,1.813l-0.303-1.813
		l-4.234-3.125l1.814,0.503l-4.436-2.721l0.705-1.209l-4.535-2.318l-2.117-1.11l2.722-0.302L190.155,96.674z"/>
</g>
<g>
	<polygon points="184.006,93.248 187.333,94.156 189.147,93.45 187.333,91.837 183.704,91.535 	"/>
</g>
<g>
	<path d="M65.871,206.381c0.009-76.7,62.895-140.5,140.509-140.509l0,0c77.603,0.002,140.508,62.907,140.51,140.509l0,0
		c-0.002,77.601-62.907,140.508-140.51,140.51l0,0C128.778,346.889,65.874,283.981,65.871,206.381L65.871,206.381z M109.034,109.367
		c-24.921,25.034-40.327,59.449-40.327,97.014l0,0c0.002,38.021,15.408,72.433,40.325,97.35l0,0
		c24.917,24.917,59.328,40.323,97.349,40.325l0,0c38.021-0.002,72.433-15.408,97.35-40.325l0,0
		c24.917-24.917,40.323-59.328,40.325-97.35l0,0c-0.002-38.021-15.408-72.432-40.325-97.349l0,0
		c-24.917-24.917-59.328-40.325-97.35-40.325l0,0C168.364,68.707,133.955,84.337,109.034,109.367L109.034,109.367z"/>
</g>
<g>
	<path d="M6.74,206.378C6.746,97.407,96.107,6.749,206.38,6.74l0,0c110.261,0,199.641,89.38,199.643,199.638l0,0
		c-0.002,110.261-89.382,199.641-199.643,199.644l0,0C96.12,406.019,6.74,316.639,6.74,206.378L6.74,206.378z M67.218,67.699
		C31.6,103.48,9.574,152.678,9.574,206.378l0,0c0,54.353,22.025,103.546,57.642,139.165l0,0
		c35.621,35.616,84.813,57.642,139.164,57.644l0,0c54.352-0.002,103.544-22.027,139.164-57.644l0,0
		c35.617-35.619,57.643-84.813,57.643-139.165l0,0c0-54.349-22.025-103.541-57.643-139.16l0,0
		C309.924,31.6,260.732,9.574,206.38,9.574l0,0C152.035,9.574,102.841,31.918,67.218,67.699L67.218,67.699z"/>
</g>
<g>
	<path d="M0,206.379C0.006,93.728,92.385,0.009,206.381,0l0,0C320.364,0,412.76,92.398,412.762,206.379l0,0
		c-0.002,113.983-92.398,206.382-206.381,206.382l0,0C92.398,412.761,0,320.362,0,206.379L0,206.379z M62.454,62.95
		C25.614,99.957,2.834,150.84,2.834,206.379l0,0c0,56.213,22.781,107.091,59.617,143.931l0,0
		c36.84,36.835,87.717,59.614,143.93,59.617l0,0c56.213-0.003,107.09-22.782,143.928-59.617l0,0
		c36.838-36.84,59.617-87.718,59.617-143.931l0,0c0-56.212-22.779-107.087-59.617-143.927l0,0
		C313.471,25.614,262.594,2.835,206.381,2.835l0,0C150.175,2.835,99.295,25.943,62.454,62.95L62.454,62.95z"/>
</g>
</svg>
